<svg width="118" height="24" viewBox="0 0 118 24" fill="none" xmlns="http://www.w3.org/2000/svg">
<path d="M19.8811 11.9552C19.5613 11.2796 19.2393 10.6055 18.915 9.93283C18.8724 9.84373 18.8321 9.69005 18.7536 9.69005C18.6752 9.69005 18.6102 9.84373 18.5631 9.93728C18.0049 11.0242 17.4423 12.1112 16.9357 13.2204C16.1736 14.8708 16.4246 14.3207 16.1736 14.8708L15.2052 16.7574C15.1201 16.5926 15.0551 16.4767 14.9968 16.3587C12.4011 11.0576 9.80684 5.75509 7.21412 0.451073C7.16378 0.305619 7.06449 0.181876 6.93299 0.100721C6.8015 0.0195659 6.64587 -0.0140308 6.49234 0.0056064C4.45477 0.0256524 2.41496 0.0056064 0.375144 0.0056064C-0.0731656 0.0056064 -0.0731558 0.00561076 0.133067 0.399849C1.874 3.95319 3.61418 7.50429 5.35362 11.0532C7.42332 15.2762 9.48779 19.5014 11.547 23.7289C11.5799 23.8176 11.6422 23.8924 11.7238 23.9411C11.8053 23.9897 11.9011 24.0091 11.9953 23.9962C12.7463 23.9828 13.4994 23.9962 14.2503 23.9962H18.4219C18.5541 23.9962 18.6998 24.0185 18.776 23.8737C19.119 23.2255 19.0136 23.4461 19.119 23.2255C19.9865 21.4303 20.8158 19.615 21.7618 17.8599C22.1854 17.0737 22.1966 16.4567 21.7618 15.6838C21.0647 14.481 20.4975 13.1981 19.8811 11.9552Z" fill="white"/>
<path d="M23.8326 0.00532082C21.8257 0.00532082 19.8412 0.0215342 17.8477 0.00532082C17.7064 -0.0135305 17.5632 0.0181811 17.4416 0.095232C17.32 0.172283 17.2273 0.290071 17.1788 0.429183C15.8409 3.30436 14.4985 6.17336 13.1517 9.03619C13.0068 9.34193 13.1138 9.35582 13.3747 9.35351C14.4071 9.35351 15.4373 9.35351 16.4697 9.35351C17.5021 9.35351 18.5323 9.35351 19.5647 9.35351C19.6525 9.3635 19.741 9.34242 19.8159 9.29366C19.8907 9.2449 19.9476 9.17131 19.9772 9.08483C21.3359 6.17105 22.6998 3.26036 24.0689 0.352751C24.1982 0.0493287 24.1157 0.00532082 23.8326 0.00532082Z" fill="#F9FA00"/>
<path d="M43.8564 18.2857H38.8911V18.04C40.3486 18.04 40.1756 17.0326 39.978 16.2463L37.4089 8.48173C37.1619 7.67087 36.4702 6.24573 34.7163 6.24573V6.00001H38.8664C39.6569 6.00001 39.8545 6.49144 40.1015 7.22858L43.5846 17.4994L46.4255 8.48173C46.6231 7.72001 47.0925 6.24573 45.3386 6.24573V6.00001H49.5134V6.24573C47.7595 6.24573 47.216 7.6463 46.9443 8.48173L43.8564 18.2857Z" fill="white"/>
<path d="M54.161 6.00001C54.9515 6.00001 55.3961 6.46687 55.7173 7.22858L59.4227 15.7794L61.7201 8.48173C61.9177 7.72001 62.3871 6.24573 60.6332 6.24573V6.00001H64.808V6.24573C63.0541 6.24573 62.5106 7.6463 62.2389 8.48173L59.1263 18.2857C58.2123 21.1852 54.7539 24.0846 50.5297 22.5612L51.7648 20.0794C54.7292 21.0377 56.6807 20.9149 57.817 19.6617L57.7923 19.6863L52.7035 7.8183C52.2342 7.08116 51.3449 6.24573 50.0109 6.24573V6.00001H54.161Z" fill="white"/>
<path d="M71.9933 9.8823C70.9804 13.0029 67.4973 11.8234 67.522 15.804C67.5467 19.072 71.9933 17.9663 71.9933 15.6074V9.8823ZM73.2284 18.2857C72.4379 18.2857 71.9933 17.8434 71.9933 17.0572C70.2641 19.3177 64.5577 19.1703 64.5577 15.804C64.5577 11.1846 71.7709 13.9857 71.7709 7.86744C71.5486 7.00744 71.0793 6.34401 70.1405 6.34401C68.3866 6.34401 66.7068 8.45716 65.8175 10.9634H65.6446L66.3116 5.97544H66.7315C67.1762 6.36858 68.0161 6.73716 68.8313 6.39316C69.4242 6.02458 70.017 5.82801 70.9804 5.82801C74.3647 5.82801 74.9082 8.08858 74.9576 9.8823V15.804C74.9576 16.6149 75.1058 18.04 76.8598 18.04V18.2857H73.2284Z" fill="white"/>
<path d="M85.3719 7.27773C85.5448 6.98287 85.693 6.71258 85.8906 6.49144H82.5557C80.5795 6.49144 78.8009 9.66115 78.3562 10.988H78.1833L79.0232 6.00001H91.4488V6.34401C89.7937 6.34401 88.8797 7.3023 88.2374 8.30973L82.778 17.7943H87.027C89.0032 17.7943 90.7818 14.6246 91.2265 13.2977H91.3994L90.5595 18.2857H77.3434V18.04C79.0726 18.04 79.5914 16.9097 80.2583 15.8532L85.3719 7.27773Z" fill="white"/>
<path d="M101.227 11.4303C99.0776 11.4303 94.9769 12.708 96.0144 16.6394C96.6073 17.524 97.4719 18.04 98.707 18.04C100.337 18.04 101.696 16.6394 102.882 15.1897C103.87 14.0103 105.031 11.4549 105.08 8.35887C105.056 7.54801 104.858 6.24573 103.178 6.24573V6.00001H106.81C107.6 6.00001 108.045 6.4423 108.045 7.22858V8.87487L108.811 7.84287L109.008 7.59716C109.774 6.63887 110.737 5.77887 112.17 5.77887C114.122 5.5823 115.95 6.93373 116.098 9.8823V15.804C116.098 16.6149 116.246 18.04 118 18.04V18.2857H111.231V18.04C112.985 18.04 113.134 16.6149 113.134 15.804V10.2509C113.134 7.22858 110.861 6.36858 108.959 8.5063L108.564 9.0223L108.391 9.26801L108.119 9.58744L104.216 14.3052C102.684 16.2709 101.177 18.5314 98.1883 18.5314C94.2358 18.5314 91.9384 15.6812 91.9384 12.1674V11.8234C91.9384 8.43258 94.1123 5.77887 97.9165 5.77887C101.4 5.77887 103.623 8.23601 103.623 11.4303H101.227ZM103.178 18.2857V18.04C104.932 18.04 105.08 16.6149 105.08 15.804V13.9366L108.045 10.3246V15.804C108.045 16.6149 108.193 18.04 109.947 18.04V18.2857H103.178ZM95.0263 11.8234V12.1674C95.0263 13.1994 95.1251 14.1823 95.3227 15.0177C95.545 12.3149 98.5835 11.1846 100.56 10.988C100.337 8.28516 99.7693 6.2703 97.9165 6.2703C95.7674 6.2703 95.0263 8.70287 95.0263 11.8234Z" fill="white"/>
</svg>
